<svg xmlns="http://www.w3.org/2000/svg" width="212" height="29" viewBox="0 0 212 29">
    <g fill="none" fill-rule="nonzero">
        <path fill="#00CAFF" d="M14.5 0C6.493 0 0 6.557 0 14.5S6.493 29 14.5 29 29 22.443 29 14.5 22.507 0 14.5 0zm-1.793 29v-2.813c0-1-.637-1.937-1.592-2.312-3.567-1.5-6.115-5-6.115-9.063C5 9.439 9.459 5 15 5s10 4.438 10 9.813C25 21.186 19.968 27.187 12.707 29z"/>
        <g fill="#333E48">
            <path d="M45.616 8C49.184 8 51 9.518 51 12.49v10.751c0 .316-.13.443-.454.443h-.649c-.324 0-.454-.127-.519-.443l-.13-1.328C47.499 23.304 45.617 24 43.67 24c-1.427 0-2.594-.38-3.373-1.202C39.39 22.04 39 20.964 39 19.636c0-1.454.519-2.656 1.557-3.478 1.038-.822 2.465-1.265 4.216-1.265.649 0 1.362.064 2.205.19.779.126 1.557.316 2.27.506v-2.53c0-1.201-.324-2.087-.907-2.656-.584-.506-1.622-.822-2.984-.822-1.298 0-2.66.19-4.087.632a2.23 2.23 0 0 0-.519.19c-.13.063-.26.063-.324.063-.26 0-.39-.126-.39-.379v-.506c0-.316.13-.506.39-.632.778-.317 1.622-.506 2.53-.696.908-.19 1.816-.253 2.66-.253zm-.461 8C42.365 16 41 17.052 41 19.216c0 1.856.992 2.784 2.915 2.784.744 0 1.55-.124 2.418-.433.869-.31 1.737-.742 2.667-1.299v-3.711A14.098 14.098 0 0 0 45.155 16zM72.715 8.065c1.407 0 2.494.387 3.198 1.16C76.616 10 77 11.162 77 12.71v10.838c0 .323-.128.452-.448.452h-.831c-.32 0-.448-.129-.448-.452V13.484c0-1.355-.256-2.323-.703-2.968-.448-.58-1.215-.903-2.239-.903-1.982 0-3.837.645-5.564 1.935.064.517.064.968.064 1.484v10.516c0 .323-.128.452-.447.452h-.832c-.32 0-.447-.129-.447-.452V13.484c0-1.355-.256-2.323-.704-2.968-.448-.58-1.215-.903-2.238-.903-1.919 0-3.71.645-5.436 1.87v12.065c0 .323-.128.452-.448.452h-.831c-.32 0-.448-.129-.448-.452V8.968c0-.323.128-.452.448-.452h.64c.319 0 .51.13.51.452l.129 1.226a10.612 10.612 0 0 1 2.878-1.613C60.628 8.194 61.587 8 62.547 8c1.918 0 3.197.774 3.837 2.387a12.396 12.396 0 0 1 3.07-1.806c1.15-.323 2.174-.516 3.261-.516zM86.587 8C90.174 8 92 9.518 92 12.49v10.751c0 .316-.13.443-.457.443h-.652c-.326 0-.456-.127-.521-.443l-.13-1.328C88.477 23.304 86.586 24 84.63 24c-1.434 0-2.608-.38-3.39-1.202-.849-.822-1.24-1.834-1.24-3.225 0-1.454.522-2.656 1.565-3.478 1.044-.822 2.478-1.265 4.24-1.265.652 0 1.369.063 2.217.19.782.126 1.565.316 2.282.506v-2.53c0-1.202-.326-2.087-.913-2.656-.587-.506-1.63-.822-3-.822-1.304 0-2.674.19-4.108.632a2.25 2.25 0 0 0-.522.19c-.13.063-.261.063-.326.063-.261 0-.392-.126-.392-.38v-.505c0-.316.13-.506.392-.633.782-.316 1.63-.506 2.543-.695A18.1 18.1 0 0 1 86.587 8zm-.432 8C83.365 16 82 17.052 82 19.216c0 1.856.992 2.784 2.915 2.784.744 0 1.55-.124 2.418-.433.869-.31 1.737-.742 2.667-1.299v-3.711c-1.364-.371-2.667-.557-3.845-.557zM107 22.871v.664c0 .332-.131.465-.459.465H95.459c-.328 0-.459-.133-.459-.465v-.664c0-.199 0-.398.066-.53.065-.134.13-.266.327-.465l9.574-12.283h-9.115c-.327 0-.459-.132-.459-.464v-.664c0-.332.132-.465.46-.465h10.688c.328 0 .459.133.459.465v.664c0 .199 0 .332-.066.464-.065.133-.13.332-.327.531l-9.574 12.283h9.574c.262 0 .393.132.393.464zM115 25c-2.207 0-3.91-.733-5.171-2.2-1.261-1.467-1.829-3.6-1.829-6.333 0-2.734.63-4.8 1.829-6.267C111.09 8.733 112.793 8 115 8c2.207 0 3.91.733 5.171 2.2 1.261 1.467 1.829 3.533 1.829 6.267 0 2.733-.63 4.8-1.829 6.333-1.261 1.467-2.964 2.2-5.171 2.2zm0-1c3.313 0 5-2.31 5-7 0-4.621-1.687-7-5-7-3.313 0-5 2.31-5 7 0 4.69 1.687 7 5 7zM134.249 8c1.583 0 2.771.389 3.563 1.166.792.777 1.188 1.943 1.188 3.498v10.883c0 .323-.132.453-.462.453h-.858c-.33 0-.462-.13-.462-.453V13.44c0-1.36-.264-2.332-.792-2.98-.528-.582-1.385-.906-2.507-.906s-2.178.194-3.168.518c-.99.324-1.98.842-2.97 1.49v11.984c0 .323-.131.453-.461.453h-.858c-.33 0-.462-.13-.462-.453V8.907c0-.324.132-.454.462-.454h.66c.33 0 .528.13.528.454l.132 1.36a12.788 12.788 0 0 1 3.233-1.684A9.477 9.477 0 0 1 134.25 8zM155.587 8C159.174 8 161 9.518 161 12.49v10.751c0 .316-.13.443-.457.443h-.652c-.326 0-.456-.127-.521-.443l-.13-1.328c-1.762 1.391-3.653 2.087-5.61 2.087-1.434 0-2.608-.38-3.39-1.202-.849-.822-1.24-1.834-1.24-3.225 0-1.454.522-2.656 1.565-3.478 1.044-.822 2.478-1.265 4.24-1.265.652 0 1.369.063 2.217.19.782.126 1.565.316 2.282.506v-2.53c0-1.202-.326-2.087-.913-2.656-.587-.506-1.63-.822-3-.822-1.304 0-2.674.19-4.108.632a2.25 2.25 0 0 0-.522.19c-.13.063-.261.063-.326.063-.261 0-.392-.126-.392-.38v-.505c0-.316.13-.506.392-.633.782-.316 1.63-.506 2.543-.695a18.1 18.1 0 0 1 2.609-.19zm-.432 8c-2.79 0-4.155 1.052-4.155 3.216 0 1.856.992 2.784 2.915 2.784.744 0 1.55-.124 2.418-.433.869-.31 1.737-.742 2.667-1.299v-3.711a14.098 14.098 0 0 0-3.845-.557zM165 1.452c0-.323.123-.452.43-.452h.8c.308 0 .432.13.432.452v19.77c0 .452.061.775.246.969.184.194.492.258.923.258h.739c.245 0 .43.13.43.453v.581c0 .259-.123.388-.37.452-.122.065-.307.065-.492.065h-.615c-.8 0-1.415-.258-1.846-.71-.43-.453-.677-1.164-.677-2.003V1.452zM182.115 22.8a2.97 2.97 0 0 0 .585-.2c.13-.067.26-.067.325-.067.26 0 .39.134.39.4v.467c0 .333-.13.533-.325.667-1.495.666-3.055.933-4.745.933-2.405 0-4.225-.733-5.46-2.133-1.235-1.4-1.885-3.467-1.885-6.2a12.3 12.3 0 0 1 .52-3.6c.325-1.067.845-2 1.43-2.734a6.768 6.768 0 0 1 2.34-1.733c.91-.4 1.95-.6 3.055-.6 1.82 0 3.185.4 4.16 1.267.975.866 1.495 2.066 1.495 3.6 0 1.533-.52 2.6-1.56 3.333-1.04.733-2.665 1.067-4.875 1.067-.78 0-1.56-.067-2.405-.134-.78-.066-1.625-.266-2.405-.466 0 2.266.455 4 1.43 5.066.975 1.067 2.34 1.667 4.225 1.667 1.235-.067 2.47-.2 3.705-.6zm-3.99-12.8c-1.5 0-2.688.457-3.563 1.37s-1.375 2.282-1.562 4.043c.75.196 1.563.391 2.313.457.75.13 1.562.13 2.312.13 1.5 0 2.625-.26 3.313-.717.687-.457 1.062-1.174 1.062-2.218 0-2.022-1.313-3.065-3.875-3.065zM192.37 16.963l-4.485 6.705c-.195.266-.39.332-.65.332h-.845c-.26 0-.39-.133-.39-.332 0-.066.065-.2.195-.398l5.33-7.569-4.875-6.904c-.13-.2-.195-.332-.195-.399 0-.265.13-.332.39-.332h.975c.26 0 .52.133.65.332l4.095 5.91 4.03-5.976c.195-.266.39-.332.65-.332h.845c.26 0 .39.133.39.332 0 .066-.065.2-.195.398l-4.81 6.772 5.33 7.701c.13.2.195.332.195.399 0 .265-.13.332-.39.332h-.975c-.26 0-.455-.133-.65-.332l-4.615-6.64zM206.587 8C210.174 8 212 9.518 212 12.49v10.751c0 .316-.13.443-.457.443h-.652c-.326 0-.456-.127-.521-.443l-.13-1.328c-1.762 1.391-3.653 2.087-5.61 2.087-1.434 0-2.608-.38-3.39-1.202-.849-.822-1.24-1.834-1.24-3.225 0-1.454.522-2.656 1.565-3.478 1.044-.822 2.478-1.265 4.24-1.265.652 0 1.369.063 2.217.19.782.126 1.565.316 2.282.506v-2.53c0-1.202-.326-2.087-.913-2.656-.587-.506-1.63-.822-3-.822-1.304 0-2.674.19-4.108.632a2.25 2.25 0 0 0-.522.19c-.13.063-.261.063-.326.063-.261 0-.392-.126-.392-.38v-.505c0-.316.13-.506.392-.633.782-.316 1.63-.506 2.543-.695.848-.127 1.696-.19 2.609-.19zm-.432 8c-2.79 0-4.155 1.052-4.155 3.216 0 1.856.992 2.784 2.915 2.784.744 0 1.55-.124 2.418-.433.869-.31 1.737-.742 2.667-1.299v-3.711c-1.364-.371-2.605-.557-3.845-.557z"/>
        </g>
    </g>
</svg>
