<svg xmlns="http://www.w3.org/2000/svg" width="24" height="24" viewBox="0 0 24 24">
    <path fill="#757575" fill-rule="evenodd" d="M22 20h-4.422v-6.332c0-1.654-.69-2.783-2.21-2.783-1.163 0-1.81.762-2.11 1.499-.115.26-.096.63-.096.995V20h-4.38s.059-11.21 0-12.228h4.38v1.917c.259-.838 1.657-2.035 3.89-2.035C19.822 7.654 22 9.412 22 13.2V20zM4.353 6.242h-.028C2.915 6.242 2 5.306 2 4.122 2 2.916 2.941 2 4.382 2c1.436 0 2.32.914 2.35 2.119 0 1.185-.914 2.123-2.379 2.123zm-1.85 1.53h3.9V20h-3.9V7.772z"/>
</svg>
