<svg xmlns="http://www.w3.org/2000/svg" width="24" height="24" viewBox="0 0 24 24">
    <path fill="#757575" fill-rule="evenodd" d="M22 5.894a8.31 8.31 0 0 1-2.357.636 4.05 4.05 0 0 0 1.804-2.234 8.26 8.26 0 0 1-2.606.979A4.123 4.123 0 0 0 15.846 4c-2.265 0-4.102 1.809-4.102 4.039 0 .317.035.624.106.92a11.715 11.715 0 0 1-8.458-4.22 3.98 3.98 0 0 0-.555 2.032c0 1.4.725 2.636 1.825 3.361a4.162 4.162 0 0 1-1.86-.504v.05c0 1.958 1.415 3.59 3.293 3.96a4.065 4.065 0 0 1-1.081.142c-.265 0-.522-.024-.772-.071a4.096 4.096 0 0 0 3.833 2.803 8.317 8.317 0 0 1-5.096 1.73c-.331 0-.658-.018-.979-.056A11.755 11.755 0 0 0 8.289 20c7.55 0 11.675-6.154 11.675-11.492 0-.175-.003-.35-.011-.523A8.234 8.234 0 0 0 22 5.895"/>
</svg>
